<?xml version="1.0" encoding="UTF-8"?>
<svg id="Layer_1" xmlns="http://www.w3.org/2000/svg" version="1.1" viewBox="0 0 792 612">
  <!-- Generator: Adobe Illustrator 30.2.1, SVG Export Plug-In . SVG Version: 2.1.1 Build 1)  -->
  <defs>
    <style>
      .st0 {
        fill: #ababab;
      }
    </style>
  </defs>
  <g id="UX84bV">
    <g>
      <path class="st0" d="M743.52,453.65v2.2c-.29-.1-1.36.48-1.36,1.11v43.46c-.56.49-1.67.49-2.22-.1v-106.88c.48-.51,2.22-.4,2.22.29v58.94s1.37.99,1.37.99Z"/>
      <path class="st0" d="M565.28,267.27h-121.61s-.1,17.94-.1,17.94l-36.95.05c-.86-.15-1.58-.39-2.29-.9l-.02-95.61h-166.23s-.06-75.81-.06-75.81H56.99s-.02,60.28-.02,60.28c0,.46,1.13,1.31,1.71,1.69v170.66c.01.72-.2,1.7-.54,1.88s-1.03.11-1.62-.12l-.07-24.21-.02-149.53-7.96-.15.03-63.56c3.38-.05,6.22.16,9.56.65h181.94s.05,75.82.05,75.82h166.4s.2,21.66.2,21.66h34.35c2.07-.01,2.56,1.43,2.57,3.27l.1,53.99h122.6s.04-76.85.04-76.85c0-1.24,1.42-1.88,2.65-2.03h159.02c.43,0,1.31-.33,1.63-.38l.76-.12c.14-.02.17.39.2.81v204.67c0,.29-.11.88-.25.86l-.88-.13v-27.04s-81.68,0-81.68,0l.02,134.73,66.14.05c.54,0,1.32.79,1.27,1.19-.06.55-.77,1.12-1.76,1.12h-233.5c-.9,0-1.69-.98-1.47-1.46.45-1.01.48-.87,2.42-.87h117.8c1.64,0,1.48-.97,1.48-1.22l-.02-52.21,1.61-.51c.3-.09.68.87.68,1.23l-.02,51.52c.01.72.58,1.22,1.32,1.22h41.74s-.05-69.09-.05-69.09l-42.74-.02c-.59,0-1.38-.5-1.52-.8s.16-.89.5-1.44h43.84s0-65.69,0-65.69l83.91-.19v-173.84s-99.18,0-99.18,0v113.71s16.09.04,16.09.04l.25,2.15-16.33.22v37.19s14.51.04,14.51.04l1.45.02c.38,0,.49,1.15.34,1.51s-.92.75-1.38.75h-35.63s-.1,4.06-.1,4.06c-.01.53-.64,1.63-1.33,1.63l-46.26-.02-.18-12.3,36.36-.04v-41.39s-36.25-.01-36.25-.01l-.08-8.86,4.45-.1.08-3.79c0-.37.34-1.45.66-1.34l1.5.57.32,4.57h59.26s0-98.63,0-98.63h-59.46s0,76.63,0,76.63c-.61,1.38-1.62,2-3.23,1.9ZM600.62,338.3c0,.74-.82,1.7-1.26,1.7h-35.29s-.14,7.45-.14,7.45l42.92.02-.02-57.84-42.68.02c-.15,1.6-.14,2.84,0,4.36h36.39s.07,44.29.07,44.29ZM609.43,289.66v52.42s18.54,0,18.54,0v-52.48s-18.54.06-18.54.06ZM406.73,280.49c-.16.84-.02,2.44.48,2.52l33.6-.07c.62,0,.5-2.46-.18-2.46h-33.9ZM406.75,276.46c.06.77.14,1.37.23,1.75h33.21c.38,0,1.16-.71,1.04-1.05-.1-.27-.76-.7-1.09-.7h-33.38ZM407.87,272.11c-.56,0-1.55.83-1.38,1.09s.77.98,1.26.98l33.32-.02c.04-.9.04-1.45-.29-1.61-.26-.13-1.25-.48-1.6-.48l-31.32.04ZM406.85,268.11c-.25.89-.18,1.76.33,1.76h33.24c.32,0,1.16-.88.98-1.08-.14-.15-.71-.67-1.25-.67h-33.29ZM406.83,264.06c-.21.84-.14,1.43.36,1.78h33.03c.52,0,.99-.77.93-1.01s-.48-.74-.82-.74l-33.5-.02ZM407.72,259.81c-.65,0-1.35.95-1.17,1.33.14.31.93.67,1.36.67h32.24c.45,0,1.15-.6,1.24-.98s-.76-1.04-1.23-1.04l-32.44.02ZM407.08,255.75c-.62,0-.54,1.79.11,1.79l33.45-.03c.54,0,.8-1.24.54-1.35-.21-.09-.82-.43-1.44-.43l-32.65.02ZM407.82,251.46c-.59,0-1.45.76-1.32,1.06.1.22.47.83.94.83l32.53.05c.77,0,1.36-.54,1.41-.89.04-.28-.53-1.04-.87-1.04h-32.69ZM407.98,247.42c-.55,0-1.4.22-1.38.54s.22,1.05.43,1.3c.15.19.54.02,1.19-.08h32.3c.44,0,.87-.9.71-1.13s-.75-.62-1.12-.62h-32.13ZM407.06,243.39c-.55.44-.58,1.77.09,1.77l33.36-.02c.62,0,.96-1.2.67-1.33-.2-.09-.87-.43-1.14-.43h-32.98ZM407.62,239.08c-.57,0-1.29,1.11-.99,1.39.24.22.91.52,1.38.52h32.03c.41-.01,1.07-.62,1.24-.92.13-.24-.48-.99-.91-.99h-32.74ZM406.98,235.05l-.28,1.75h33.44c.4,0,1.22-.72,1.07-1.05-.12-.26-.78-.7-1.09-.7h-33.15ZM408.29,231.03c-1.03,0-1.36.03-1.66.3-.23.21.13,1.44.54,1.44h32.82c.46,0,1.07-.4,1.3-.58s-.43-1.16-.88-1.16h-32.12ZM407.14,226.68c-.49,0-.71,1.57-.33,1.67.31.09.59.11,1.47.11l32.05-.02c.54,0,1.19-.95.97-1.14s-.88-.63-1.25-.63h-32.91ZM408.13,222.63c-.71,0-1.18.06-1.48.32-.24.2.21,1.49.62,1.49h33.19c.4,0,1.03-1.23.75-1.44s-.83-.36-1.37-.36h-31.72ZM407.91,218.39c-.55,0-1.39.56-1.38.97.02.46.83,1.05,1.37,1.05l32.94-.06c.46,0,.62-1.93.11-1.93l-33.04-.03ZM406.72,214.32c-.06.86.07,1.77.41,1.77h33.19c.43,0,1.28-.87,1.05-1.05-.18-.14-.68-.51-.9-.74l-33.75.02ZM407.91,210.05c-.58,0-1.38.55-1.38.97,0,.52.74,1.02,1.38,1.02h32.27c.41,0,1.12-.64,1.14-1.01s-.81-.99-1.23-.99h-32.18Z"/>
      <path class="st0" d="M229.41,351.54c0-1.47-1.29-2.56-2.54-3.18l-.25-20.21-3.98-.16c-.54-.02-.37-2.12.21-2.13l8.66-.14c.41,0,1.28.37,1.53.59.32.28.06,1.56-.37,1.6l-3.79.35.04,18.24h49.79s-.01-18.35-.01-18.35l-3.05-.18c-.57-.03-.49-2.1.14-2.11l7.34-.13c.43,0,1.19.45,1.34.77s-.23,1.4-.59,1.43l-2.88.26-.04,20.47-9.67.15c-.78,10.93-.67,21.41.07,32.27,3.11.81,11.98-.27,12.79.36.38.3.29,2.04-.27,2.04l-12.56.11-.13,3.86c-.01.42-.78,1.07-1.13,1.09-.51.04-.99-.7-1-1.46l-.16-38.34h-37.69s-.05,17.65-.05,17.65c-.61,2.8,0,5.5,0,8.37l.03,32.58,37.73-.02c.15-1.26.26-2.08.42-2.5s1.66.1,1.86.55v20.65c0,.42-.9,1.37-1.19,1.22-.38-.18-.92-.84-1.08-1.27l-.03-16.31-37.7-.04-.04,43.53,40.03.07.06,20.22-.75,1.27c-.16.27-1.5-.21-1.5-.61l-.11-18.6h-65.12s.04,44.3.04,44.3h146.26c.65.01,2.19-.37,2.19-.89l.02-43.04c0-.49.35-1.28.54-1.55.24-.35,1.74-.13,1.74.53l.05,44.95h96.39c.18.71.28,1.57,0,1.81s-1.04.5-1.75.5H57.93c-.93,0-1.43-.61-1.43-1.4v-136.76c.72-.47,2.2-.22,2.2.69v88.53s40.07.01,40.07.01c.52,0,1.71.26,1.6.64s-.46,1.22-.68,1.63l-40.97.04v44.29s70.08.02,70.08.02l.03-41.31c0-.6.13-1.38.36-1.68.28-.37,1.63-.02,1.91.41v41.7c.34.49,1.42.83,2.17.88l68.26-.03v-44.29s-43.06-.04-43.06-.04l-.62-1.16c-.16-.31.55-1.09,1.16-1.09l42.4-.02.19-5.6c.01-.32.92-1.17,1.18-.98l1.04.77v5.81s25.09.02,25.09.02v-63.49s-27.31-.03-27.31-.03l-.1-14.96h-116.71c-.62,0-1.29-.34-1.43-.66-.18-.4.45-1.61,1.02-1.61l9.16-.02.04-23.2c0-.47.69-1.39,1.12-1.48.56-.12,1.46.75,1.46,1.46l-.03,23.24h88.2s-.03-27.69-.03-27.69h-55.42s-.07-16.72-.07-16.72h-33.17c-.61,0-1.02-1.04-.79-1.55.19-.42.99-.74,1.86-.74h105.24c.36,0,.86.49.99.71.17.3-.31,1.51-.8,1.51l-15.48.11v12.71c0,6.67.31,13.17.07,19.8-.15,4.03-.16,7.67-.03,11.79,4.47.08,8.29.11,12.52-.09,5.27-.25,10.46-.08,15.76-.05l13.67.07c.26-1.39.73-2.94.74-4.14l.05-16.67ZM203.76,374.76l.09,12.69,21.11.13c1.24,0,2.62-.28,3.93-.58l.03-12.26-25.15.02ZM131.07,328.11l.07,14.31,53.02.02.15-14.4-53.24.06Z"/>
      <path class="st0" d="M352.25,360.5l-.03-4.69v-3.63s-.01-24.09-.01-24.09l-17.88-.08c-.46,0-.89-1.35-.68-1.58.27-.31.94-.7,1.48-.7l19.46.08v88.99c0,.71-.28,1.47-.65,1.53-.53.09-1.64-.43-1.64-.97l-.05-34.3-20.28-.12c-.47,0-.97-1.3-.69-1.48s1.02-.74,1.48-.74l19.5-.06v-18.19Z"/>
      <path class="st0" d="M305.6,325.84l10.55-.12c.89-.01,1.63.59,1.69,1.26.06.56-.88,1.04-1.54,1.08l-3.74.25-.08,25.2c0,1.7-.01,3.26,0,4.99l.1,21.03c0,.58-2.16.72-2.17.06l-.16-19.3v-7.55s.09-24.43.09-24.43l-3.85-.33-1.31-.14c-.31-.03.12-1.99.41-1.99Z"/>
    </g>
  </g>
</svg>