<?xml version="1.0" encoding="UTF-8"?>
<svg id="Layer_1" xmlns="http://www.w3.org/2000/svg" version="1.1" viewBox="0 0 792 612">
  <!-- Generator: Adobe Illustrator 30.2.1, SVG Export Plug-In . SVG Version: 2.1.1 Build 1)  -->
  <defs>
    <style>
      .st0 {
        fill: #cad344;
      }

      .st1 {
        fill: #50ab92;
      }
    </style>
  </defs>
  <g id="pljpeD">
    <g>
      <path d="M341.62,494.08c2.22,0,2.42,1.18,2.61,2.85h75.92s1.82-2.85,1.82-2.85h22.5s1.28,2.86,1.28,2.86h313.95s.2-23.39.2-23.39l-2.98-.89-.03-22.28,3-1.24-.11-14.32-2.62-1.12c-.54-.23-.2-1.7-.28-3l-64.96-.05c-.39,0-1.27-.33-1.5-.41-.39-.14.24-1.77,1.07-1.77h65.31s.1-61.35.1-61.35l2.92-.96-.02-98.56c-46.41-1.37-91.46,1.37-137.81-1.36,46.07-2.73,91.35,0,137.83-1.37v-103.7s-6.05-.61-6.05-.61l-92.33.02c-2.26,0-4.34.35-6.47.65v32.65s-58.53,0-58.53,0c-6.04,0-11.56-.03-17.67-.68,7.17-1.98,13.5-.03,20.25-1.52l-.04-30.81-34.93.05c-1.21,11.55,1.4,21.94-1.31,32.98-2.22-11.58-.1-22.05-1.13-33.09l-34.81.08.06,30.9c7.89,1.52,14.53-.83,22.13,1.52l-24.5.75-.02-47.69,1.34-.3c.22-.05.94,1.08.94,1.34l.13,11.43c11.53.5,22.57.26,34.21.17,12.8-.09,25.31.54,37.95-.26l-.15-46.29H140.74s-.05,120.69-.05,120.69c0,.66-.04,1.37-.06,1.66-.03.43-1.32.22-1.95.08v-122.42s-109.62.05-109.62.05v248.38s11.38.27,11.38.27c.43,0,1.24.54,1.43.87s-.48,1.73-.86,1.74l-5.4.18-.23,26.08c-1.82,1.44-3.58,3.69-3.04,5.58l.48,1.68c.07.23-.52.27-.72.12s-.56-.91-.56-1.18l.05-31.88c-.93-.65-2.75-.83-4.54-.87l-.19-142.55c0-1.35-.01-2.33,0-3.59l.07-104.45c0-.77.83-2.42,1.94-2.42l605.73.06c-10.25,4.75-22.09.22-33.34,2.26v78.88c1.79.29,3.9.66,5.75.66h40.25c1.81,0,3.9-.39,5.7-.72v-78.91s-6.69-.42-6.69-.42c-.5-.03.02-1.83.91-1.83l75.84.06c.23,1.06.26,1.23.29,1.46s-1.02.52-1.38.52h-66.92s-.02,46.25-.02,46.25c2.11.16,3.88.42,5.78.42l90.22.03c3.16,0,5.81-.25,8.86-.54v-46.76s-17.89-.14-17.89-.14c-.31,0-1.26-.23-1.53-.27-12.86-1.96,26.24-1.78,21.72-1.31l.03,254.91c1.49.73,3,2.54,3,4.59l.02,61.21c0,.63-.3,2.23-.46,2.75s-1.32.61-2.5.89l-.16,15.01,2.99.84-.11,22.27c-1.5.41-2.78.87-2.78,1.59l-.2,24.85h-315.89s-1.54,3.06-1.54,3.06l-22.88-.09c-.48-1-1.1-2.23-1.57-2.98l-75.96.02-.51,2.34c-.09.43-1.65.71-2.24.71h-98.77c-.79,0-2.53,0-2.73-.5l-1.06-2.55-102.19-.03-.05-24.99c-.44-.48-1.8-1.02-2.99-1.4l-.09-39.78-3.39-.21c-.7-.04-.78-1.81-1.07-2.91l-86.19.02c-3.49,0-6.38-.42-9.75-1.38l.1-28.7c2.47.99,2.6,2.84,2.6,5.03l.04,23.12,31.2-.06v-24.79c.13-.73,1.94-1.75,2.55-1.19l.35,25.99,58.44-.03c1,0,1.55-2.74,2.38-2.69,3.06.22,6.02.08,8.79-.51l.03-42.13c5.24-13.97,1.45,55.11,2.68,48.88l-.77,3.87-.07,37.56c-1.02.26-2.97,1.11-2.96,1.94l.26,22.24,99.34-.02,2.21-2.84,101.34-.02Z"/>
      <path d="M98.92,361.05l39.51.08c.8,0,1.69,1.41,1.49,1.69s-.94,1.01-1.38,1.01l-68.76.21-.19,23.35c0,.79-1.79.96-2.01.56-.28-.49-.55-1.53-.55-2.29l-.05-21.74-7.44-.08c-.7,0-.86-2.59-.16-2.61l8.95-.25v-17.5s-21.25-.09-21.25-.09c-.55,0-1.45-.71-1.68-1.03s.81-1.64,1.24-1.64l21.69-.07v-59.78s-21.25-.06-21.25-.06c-.56,0-1.63-.89-1.64-1.3-.02-.54.95-1.63,1.52-1.63h91.12s.09-27.38.09-27.38c0-1,2.03-1.16,2.82-.9l.06,28.19,28.45.26v62.05c0,.96-1.01,2.56-1.41,2.25l-1.56-1.18v-60.35s-47.28.02-47.28.02l-.02,59.81h14.66s1.6.93,1.6.93c.38.22-.86,1.86-1.41,1.86l-20.29-.07c-.24-.63-.68-2.02-.3-2.15l2.78-.98.02-59.39-45.24-.04-.02,59.84,29.4.05.74,1.66c.2.45-1.18.93-2.29,1.36l.05,17.34ZM73.01,344.99c0-.49-.71-1.5-1.01-1.75s-1,1.22-1,1.7v14.66c-.02.42.63,1.83.97,1.58s1.05-1.18,1.05-1.65v-14.54ZM76.93,342.93c-2.03-.02-1.28,18.36-.59,18.16l1.19-.35c-.1-5.88.34-11.45-.6-17.81ZM82.31,359.85c-.47-4.33.97-11.75-1.02-17.03-1.91,5.61-.65,12.26-.89,17.93-.02.51,1.99-.26,1.92-.9ZM87.21,359.82c-1.73-6.11,1.54-11.32-1.71-17.19-.84,6.82-.63,12.41-.29,18.71l2-1.53ZM91.58,360.39c-.76-6.14,1.06-11.4-1.16-17.71-1.36,6.36-.56,11.83-.73,18.26l1.89-.56ZM96.26,359.57l-.05-14.64c0-.35-.26-1.17-.32-1.44s-1.63.31-1.63.57l-.11,15.22c0,.58.74,1.62,1.08,1.9s1.03-1.16,1.03-1.61Z"/>
      <path d="M561.72,330.19c-.31,1.06-.62,1.97-.99,1.85s-1.08-1.1-1.08-1.93v-62.68s-37.47-.11-37.47-.11l.02,63.27c4.67.67,8.68-.91,13.47,1.16-5.18,1.92-10.2.83-15.45.89v-67.47s78.72,0,78.72,0l.02-48.23h-76.53c-1.16,11.24,1.26,21.87-1.23,33.33-2.31-11.79-.22-22.83-1.12-35.3l81.13-.05v117.61s-5.59.46-5.59.46v32.86c0,.7-2.59.88-2.64.28l-.1-32.91c-1.55-.43-2.66-.76-3.24-2.18l9.29-.44.03-63.24-37.26-.03.02,62.86Z"/>
      <path d="M265.12,264.96l28.88.05.05-22.41,7.51-.13v32.85s-46.97.02-46.97.02l-.03-61.06h47.01s-.11,11.68-.11,11.68l-6.57-.03c-.6-.84-1.93-2.03-2.79-2.02l-26.98.07v40.98ZM262.4,267.66l.05-46.45,33.13.05c.91,0,2.29,2.31,3.04,1.75.09-2.28.07-4.03-.08-6.05l-41.31.13.07,55.26h41.48s0-27.28,0-27.28c-1.26.5-1.98,1-1.98,1.41l-.13,21.24-34.26-.06Z"/>
      <path d="M228.11,354.23c0,.51-1.26,2.2-1.49,1.86l-1.03-1.46-.21-60.75-34.5-.02-.3,38.17.29,22.25,9.29.14c.54,0,1.54.32,1.84.63.41.41-.49,1.84-.95,2.19l-13.16-.26.02-65.87,77.57-.02.02,65.78-12.54.42-1.18-1.51c-.25-.32,1.05-1.32,1.5-1.33l9.3-.13.38-28.6-.34-31.82-34.55-.04.02,60.37Z"/>
      <path d="M244.54,174.53h-92.03s-.04-8.91-.04-8.91l92.24.02-.16,8.89ZM241.85,171.54c.06-1.6-.15-3.14-.88-3.14h-85.09c-.65.92-.71,1.99-.41,3.14h86.38Z"/>
      <path d="M244.6,259.44h-92s-.1-8.45-.1-8.45h92.1s0,8.45,0,8.45ZM241.27,256.73c.48-1.19.54-1.92.32-3.06h-86.02c-.26.89-.28,2.08-.08,3.06h85.79Z"/>
      <path d="M244.63,199.59l-91.92.02c-.3-2.88-.32-5.21-.15-8.56h91.95s.12,8.54.12,8.54ZM241.81,196.96l.04-2.67c0-.29-1.07-.53-1.47-.53h-84.69c-.43.94-.47,2.01-.22,3.21h86.34Z"/>
      <path d="M244.65,229.37h-91.44c-.77-2.67-.9-5.16-.66-8.69l91.97-.02.13,8.71ZM241.82,226.51c0-1.56-.21-3.1-.67-3.1h-85.45c-.47.82-.51,2-.21,3.12l86.33-.02Z"/>
      <path d="M656.45,429.63c-20.85,2.58-40.83.11-61.26,1.23-.81.04-2.29-2.01-2.29-2.93l.04-29.32c0-.5.67-1.36.94-1.64.29-.29,1.73.76,1.73,1.45v29.82c20.3,1.33,40.08-1.46,60.84,1.39Z"/>
      <path d="M424.71,440.39l-.77-63.19c-1.32,1.76-1.77,3.63-4.16,5.14,1.29-2.97,2.82-5.07,5.05-8.42,2.06,2.86,3.35,4.73,4.92,8.11-1.62-1.07-2.61-2.69-4.16-4.9-.76,20.91.87,41.56-.88,63.26Z"/>
      <path d="M445.66,403.25h-16.4c-.48,0-1.38-.73-1.59-1.05-.27-.41.88-1.66,1.52-1.66h15.98c.49,0,1.56.71,1.89.98s-.95,1.72-1.4,1.72Z"/>
      <path d="M445.69,430.95l-17.36-.08c-.7,0-.7-2.7.05-2.71l16.69-.05c.54,0,1.63.68,1.9,1.02s-.58,1.22-1.28,1.82Z"/>
      <path d="M445.36,410.24l-15.76.07c-.57,0-1.71-.6-1.93-1.09-.27-.61,1.1-1.86,1.91-1.86l15.37.05c.69,0,1.8.84,2.13,1.17s-1.1,1.65-1.73,1.66Z"/>
      <path d="M445.63,389.24l-15.83.02c-.58,0-1.69-.66-1.92-1.06-.3-.53,1.07-1.66,1.73-1.66l15.39.06c.6,0,1.61.6,1.97.83s-.81,1.8-1.34,1.8Z"/>
      <path d="M445.11,396.27l-15.76.02c-.61,0-1.8-1.35-1.52-1.75s1.25-1.01,1.9-1.01l15.76.06c.47,0,1.9,1.37,1.57,1.68s-1.36,1-1.94,1Z"/>
      <path d="M420.62,403.21l-13.92.03c-.47,0-1.41-.76-1.64-1.04-.31-.37.97-1.65,1.45-1.65l13.21-.04c.41,0,1.62.44,1.98.58.48.18-.48,2.11-1.08,2.11Z"/>
      <path d="M420.98,389.21l-14.27.04c-.42,0-1.41-.81-1.71-1.06s1.01-1.59,1.38-1.59l13.37-.05c.48,0,1.53.38,1.91.52s-.27,2.14-.67,2.14Z"/>
      <path d="M420.3,396.32l-13.68-.09c-.38,0-1.34-.77-1.59-1.03-.32-.36,1.02-1.62,1.61-1.62l13.75-.03c.37,0,1.29.71,1.47,1.05.24.45-1,1.73-1.55,1.73Z"/>
      <path d="M420.21,410.27l-13.51-.02c-.42,0-1.37-.75-1.64-1.01-.36-.35.96-1.81,1.48-1.81l13.27-.02c.55,0,1.67.73,1.93,1.15s-.93,1.71-1.53,1.71Z"/>
      <path d="M420.05,430.94l-13.34-.06c-.46,0-1.45-.8-1.69-1.09-.33-.38,1.06-1.64,1.69-1.64l13.11-.03c.43,0,1.39.68,1.64,1.01s-.94,1.81-1.41,1.81Z"/>
      <path d="M445.56,417.09h-16.45c-.51.01-1.68-.98-1.59-1.4s1.03-1.28,1.66-1.28h15.8c.45,0,1.59.52,1.92.65.49.2-.77,2.03-1.34,2.03Z"/>
      <path d="M445.21,424.01h-16.21c-.49,0-1.45-.82-1.5-1.25s1.12-1.5,1.6-1.5h16.03c.57-.01,2.02.96,1.9,1.46s-1.28,1.29-1.83,1.29Z"/>
      <path d="M420.15,424.03l-13.5-.06c-.45,0-1.45-.91-1.71-1.19s.98-1.45,1.45-1.46l13.54-.13,1.49.85c.37.21-.82,1.99-1.28,1.99Z"/>
      <path d="M419.84,417.14l-13.29-.09c-.48,0-1.84-1.04-1.62-1.36s1.19-1.24,1.71-1.24l13.17-.06c.6,0,1.75.79,1.85,1.3s-1.29,1.46-1.83,1.46Z"/>
    </g>
  </g>
  <rect class="st1" x="337.65" y="164.05" width="11.37" height="168.4"/>
  <rect class="st1" x="194.11" y="122.94" width="8.95" height="94.04" transform="translate(368.54 -28.62) rotate(90)"/>
  <rect class="st1" x="194.11" y="148.34" width="8.95" height="94.04" transform="translate(393.95 -3.22) rotate(90)"/>
  <rect class="st1" x="194.11" y="177.94" width="8.95" height="94.04" transform="translate(423.54 26.38) rotate(90)"/>
  <rect class="st1" x="194.11" y="208.19" width="8.95" height="94.04" transform="translate(453.79 56.63) rotate(90)"/>
  <rect class="st1" x="381.89" y="164.05" width="11.37" height="168.4"/>
  <rect class="st1" x="426.12" y="164.05" width="11.37" height="168.4"/>
  <rect class="st1" x="470.36" y="164.05" width="11.37" height="168.4"/>
  <rect class="st1" x="508.7" y="214.96" width="11.37" height="35.3"/>
  <rect class="st1" x="508.7" y="264.65" width="11.37" height="67.79"/>
  <g id="uhEuDd">
    <path class="st0" d="M215.49,488.45c-.26.42-.59.59-1.03.48-.33-.08-.66-.39-.66-.82v-8.56s-5.23,0-5.23,0c-.34,0-.65-.16-.79-.4-.18-.29-.21-.63-.02-.94l7.18-11.78c.22-.36.63-.46,1-.35s.61.43.61.88v8.51s5.23,0,5.23,0c.34,0,.64.16.78.39.17.29.21.63.02.93l-7.11,11.67Z"/>
  </g>
  <g id="uhEuDd1" data-name="uhEuDd">
    <path class="st0" d="M393.57,488.45c-.26.42-.59.59-1.03.48-.33-.08-.66-.39-.66-.82v-8.56s-5.23,0-5.23,0c-.34,0-.65-.16-.79-.4-.18-.29-.21-.63-.02-.94l7.18-11.78c.22-.36.63-.46,1-.35s.61.43.61.88v8.51s5.23,0,5.23,0c.34,0,.64.16.78.39.17.29.21.63.02.93l-7.11,11.67Z"/>
  </g>
  <g id="uhEuDd2" data-name="uhEuDd">
    <path class="st0" d="M593.21,488.45c-.26.42-.59.59-1.03.48-.33-.08-.66-.39-.66-.82v-8.56s-5.23,0-5.23,0c-.34,0-.65-.16-.79-.4-.18-.29-.21-.63-.02-.94l7.18-11.78c.22-.36.63-.46,1-.35s.61.43.61.88v8.51s5.23,0,5.23,0c.34,0,.64.16.78.39.17.29.21.63.02.93l-7.11,11.67Z"/>
  </g>
  <g id="uhEuDd3" data-name="uhEuDd">
    <path class="st0" d="M704.48,488.45c-.26.42-.59.59-1.03.48-.33-.08-.66-.39-.66-.82v-8.56s-5.23,0-5.23,0c-.34,0-.65-.16-.79-.4-.18-.29-.21-.63-.02-.94l7.18-11.78c.22-.36.63-.46,1-.35s.61.43.61.88v8.51s5.23,0,5.23,0c.34,0,.64.16.78.39.17.29.21.63.02.93l-7.11,11.67Z"/>
  </g>
</svg>